<svg width="38" height="38" viewBox="0 0 38 38" fill="none" xmlns="http://www.w3.org/2000/svg">
<path d="M2 6C2 3.79086 3.79086 2 6 2H13C15.2091 2 17 3.79086 17 6V15C17 17.2091 15.2091 19 13 19H6C3.79086 19 2 17.2091 2 15V6Z" stroke="black" stroke-width="3"/>
<path d="M22 21C22 18.7909 23.7909 17 26 17H32C34.2091 17 36 18.7909 36 21V32C36 34.2091 34.2091 36 32 36H26C23.7909 36 22 34.2091 22 32V21Z" stroke="black" stroke-width="3"/>
<path d="M22 6C22 3.79086 23.7909 2 26 2H32C34.2091 2 36 3.79086 36 6V8C36 10.2091 34.2091 12 32 12H26C23.7909 12 22 10.2091 22 8V6Z" stroke="black" stroke-width="3"/>
<path d="M2 28C2 25.7909 3.79086 24 6 24H13C15.2091 24 17 25.7909 17 28V32C17 34.2091 15.2091 36 13 36H6C3.79086 36 2 34.2091 2 32V28Z" stroke="black" stroke-width="3"/>
</svg>
