<svg width="43" height="35" viewBox="0 0 43 35" fill="none" xmlns="http://www.w3.org/2000/svg">
<path d="M14.5125 20.7812C17.8153 20.7812 20.583 23.1127 21.3121 26.2463L41.3875 26.25C42.278 26.25 43 26.9846 43 27.8906C43 28.7212 42.3933 29.4077 41.6064 29.5164L41.3875 29.5312L21.3127 29.5328C20.5843 32.6675 17.8162 35 14.5125 35C11.2089 35 8.44077 32.6675 7.71231 29.5328L1.6125 29.5312C0.721949 29.5312 0 28.7967 0 27.8906C0 27.06 0.606623 26.3736 1.39369 26.2649L1.6125 26.25L7.71231 26.2485C8.44077 23.1138 11.2089 20.7812 14.5125 20.7812ZM14.5125 24.0625C12.8696 24.0625 11.4726 25.1339 10.9597 26.6273L10.9155 26.7645L10.8327 27.0887C10.7785 27.3472 10.75 27.6154 10.75 27.8906C10.75 28.2292 10.7932 28.5578 10.8744 28.8704L10.96 29.1548L11.0152 29.3051C11.5682 30.7193 12.9256 31.7188 14.5125 31.7188C16.1546 31.7188 17.5509 30.6484 18.0645 29.1561L18.1507 28.8702L18.114 29.0021C18.2187 28.6503 18.275 28.2772 18.275 27.8906C18.275 27.6614 18.2552 27.4367 18.2172 27.2186L18.1527 26.9187L18.1097 26.7647L18.009 26.474C17.4554 25.0611 16.0986 24.0625 14.5125 24.0625ZM28.4875 0C31.7912 0 34.5593 2.33258 35.2877 5.46731L41.3875 5.46875C42.278 5.46875 43 6.20329 43 7.10938C43 7.93997 42.3933 8.62638 41.6064 8.73502L41.3875 8.75L35.2877 8.75144C34.5593 11.8862 31.7912 14.2188 28.4875 14.2188C25.1838 14.2188 22.4157 11.8862 21.6873 8.75144L1.6125 8.75C0.721949 8.75 0 8.01546 0 7.10938C0 6.27878 0.606623 5.59237 1.39369 5.48373L1.6125 5.46875L21.6879 5.4651C22.417 2.33148 25.1847 0 28.4875 0ZM28.4875 3.28125C26.8447 3.28125 25.4476 4.3526 24.9346 5.84609L24.8906 5.98314L24.8078 6.30737C24.7536 6.566 24.725 6.8343 24.725 7.10938C24.725 7.44807 24.7682 7.7765 24.8495 8.08924L24.9351 8.37347L24.9903 8.5239C25.5431 9.93797 26.9006 10.9375 28.4875 10.9375C30.1297 10.9375 31.5259 9.86722 32.0395 8.37489L32.1257 8.08896L32.089 8.2208C32.1937 7.86907 32.25 7.49591 32.25 7.10938C32.25 6.88008 32.2302 6.65549 32.1922 6.43727L32.1277 6.13736L32.0847 5.98345L31.984 5.69266C31.4304 4.27978 30.0736 3.28125 28.4875 3.28125Z" fill="#212121"/>
</svg>
