<svg width="30" height="33" viewBox="0 0 30 33" fill="none" xmlns="http://www.w3.org/2000/svg">
<path d="M15 0.326843C21.7498 0.326843 27.2612 5.65143 27.493 12.4086L27.5 12.8268V19.6552L29.8 24.9152C29.915 25.1784 29.9745 25.4625 29.9745 25.7499C29.9745 26.9004 29.0417 27.8332 27.8912 27.8332L20 27.8357C20 30.597 17.7613 32.8357 15 32.8357C12.3372 32.8357 10.1606 30.754 10.0085 28.1294L9.99923 27.8319L2.12475 27.8332C1.83918 27.8332 1.55668 27.7744 1.29475 27.6607C0.239417 27.2022 -0.2445 25.9752 0.2139 24.9199L2.49998 19.6567V12.8267C2.50098 5.90203 8.0868 0.326843 15 0.326843ZM17.4992 27.8319L12.5 27.8357C12.5 29.2164 13.6193 30.3357 15 30.3357C16.2995 30.3357 17.3673 29.3442 17.4885 28.0764L17.4992 27.8319ZM15 2.82684C9.46638 2.82684 5.00078 7.28394 4.99998 12.8268V20.1762L2.76002 25.3332H27.2542L25 20.1779L25.0002 12.8483L24.994 12.4729C24.8088 7.08381 20.4027 2.82684 15 2.82684Z" fill="#212121"/>
</svg>
